<svg width="18" height="18" viewBox="0 0 18 18" fill="none" xmlns="http://www.w3.org/2000/svg">
<path d="M15.97 5.70196L10.637 1.55396C10.169 1.18986 9.59295 0.992188 9 0.992188C8.40704 0.992188 7.83101 1.18986 7.363 1.55396L2.029 5.70196C1.70844 5.95124 1.44909 6.27048 1.27076 6.63531C1.09242 7.00013 0.999809 7.40088 1 7.80696V15.007C1 15.5374 1.21071 16.0461 1.58579 16.4212C1.96086 16.7962 2.46957 17.007 3 17.007H15C15.5304 17.007 16.0391 16.7962 16.4142 16.4212C16.7893 16.0461 17 15.5374 17 15.007V7.80696C17 6.98396 16.62 6.20696 15.97 5.70196Z" fill="#111149" stroke="white" stroke-linecap="round" stroke-linejoin="round"/>
<path d="M12.9697 11.9922C10.7597 13.3252 7.17773 13.3252 4.96973 11.9922H12.9697Z" fill="#111149"/>
<path d="M12.9697 11.9922C10.7597 13.3252 7.17773 13.3252 4.96973 11.9922" stroke="white" stroke-width="1.5" stroke-linecap="round" stroke-linejoin="round"/>
</svg>
