<svg width="19" height="17" viewBox="0 0 19 17" fill="none" xmlns="http://www.w3.org/2000/svg">
<path fill-rule="evenodd" clip-rule="evenodd" d="M0.989502 0.652344C0.989502 0.324425 1.25533 0.0585938 1.58325 0.0585938H17.4166C17.7445 0.0585938 18.0103 0.324425 18.0103 0.652344C18.0103 0.980263 17.7445 1.24609 17.4166 1.24609H16.427V8.78275C16.427 8.82457 16.427 8.86584 16.427 8.90656C16.4275 9.8461 16.4279 10.4995 16.1616 11.0859C15.8954 11.6721 15.4031 12.1021 14.6952 12.7204C14.6646 12.7472 14.6335 12.7744 14.602 12.8019L12.9885 14.2127C12.2689 14.8418 11.6865 15.3511 11.1711 15.6979C10.6346 16.059 10.1092 16.2878 9.49992 16.2878C8.8906 16.2878 8.36526 16.059 7.82873 15.6979C7.3133 15.3511 6.73088 14.8418 6.01131 14.2127L4.39786 12.8019C4.36637 12.7744 4.33528 12.7472 4.30459 12.7204C3.59669 12.1021 3.10443 11.6721 2.83821 11.0859C2.57197 10.4995 2.57231 9.84609 2.57279 8.90656C2.57281 8.86583 2.57284 8.82457 2.57284 8.78275V1.24609H1.58325C1.25533 1.24609 0.989502 0.980263 0.989502 0.652344ZM3.76034 1.24609V8.78275C3.76034 9.89645 3.77275 10.2718 3.91945 10.5949C4.06619 10.918 4.34078 11.1746 5.17951 11.9079L6.76285 13.2924C7.51973 13.9541 8.04603 14.4128 8.49169 14.7127C8.92343 15.0033 9.21686 15.1003 9.49992 15.1003C9.78297 15.1003 10.0764 15.0033 10.5081 14.7127C10.9538 14.4128 11.4801 13.9541 12.237 13.2924L13.8203 11.9079C14.6591 11.1746 14.9337 10.918 15.0804 10.5949C15.2271 10.2718 15.2395 9.89645 15.2395 8.78275V1.24609H3.76034ZM6.13534 5.40234C6.13534 5.07443 6.40117 4.80859 6.72909 4.80859H12.2708C12.5987 4.80859 12.8645 5.07443 12.8645 5.40234C12.8645 5.73026 12.5987 5.99609 12.2708 5.99609H6.72909C6.40117 5.99609 6.13534 5.73026 6.13534 5.40234ZM6.13534 9.36068C6.13534 9.03276 6.40117 8.76693 6.72909 8.76693H12.2708C12.5987 8.76693 12.8645 9.03276 12.8645 9.36068C12.8645 9.6886 12.5987 9.95443 12.2708 9.95443H6.72909C6.40117 9.95443 6.13534 9.6886 6.13534 9.36068Z" fill="#6B7280"/>
</svg>
