<svg width="19" height="20" viewBox="0 0 19 20" fill="none" xmlns="http://www.w3.org/2000/svg">
<path fill-rule="evenodd" clip-rule="evenodd" d="M0.989502 1.65234C0.989502 1.32442 1.25533 1.05859 1.58325 1.05859H17.4166C17.7445 1.05859 18.0103 1.32442 18.0103 1.65234C18.0103 1.98026 17.7445 2.24609 17.4166 2.24609H16.427V9.78275C16.427 9.82457 16.427 9.86584 16.427 9.90656C16.4275 10.8461 16.4279 11.4995 16.1616 12.0859C15.8954 12.6721 15.4031 13.1021 14.6952 13.7204C14.6646 13.7472 14.6335 13.7744 14.602 13.8019L12.9885 15.2127C12.2689 15.8418 11.6865 16.3511 11.1711 16.6979C10.6346 17.059 10.1092 17.2878 9.49992 17.2878C8.8906 17.2878 8.36526 17.059 7.82873 16.6979C7.3133 16.3511 6.73088 15.8418 6.01131 15.2127L4.39786 13.8019C4.36637 13.7744 4.33528 13.7472 4.30459 13.7204C3.59669 13.1021 3.10443 12.6721 2.83821 12.0859C2.57197 11.4995 2.57231 10.8461 2.57279 9.90656C2.57281 9.86583 2.57284 9.82457 2.57284 9.78275V2.24609H1.58325C1.25533 2.24609 0.989502 1.98026 0.989502 1.65234ZM3.76034 2.24609V9.78275C3.76034 10.8964 3.77275 11.2718 3.91945 11.5949C4.06619 11.918 4.34078 12.1746 5.17951 12.9079L6.76285 14.2924C7.51973 14.9541 8.04603 15.4128 8.49169 15.7127C8.92343 16.0033 9.21686 16.1003 9.49992 16.1003C9.78297 16.1003 10.0764 16.0033 10.5081 15.7127C10.9538 15.4128 11.4801 14.9541 12.237 14.2924L13.8203 12.9079C14.6591 12.1746 14.9337 11.918 15.0804 11.5949C15.2271 11.2718 15.2395 10.8964 15.2395 9.78275V2.24609H3.76034ZM6.13534 6.40234C6.13534 6.07443 6.40117 5.80859 6.72909 5.80859H12.2708C12.5987 5.80859 12.8645 6.07443 12.8645 6.40234C12.8645 6.73026 12.5987 6.99609 12.2708 6.99609H6.72909C6.40117 6.99609 6.13534 6.73026 6.13534 6.40234ZM6.13534 10.3607C6.13534 10.0328 6.40117 9.76693 6.72909 9.76693H12.2708C12.5987 9.76693 12.8645 10.0328 12.8645 10.3607C12.8645 10.6886 12.5987 10.9544 12.2708 10.9544H6.72909C6.40117 10.9544 6.13534 10.6886 6.13534 10.3607Z" fill="#6B7280"/>
</svg>
