<?xml version="1.0" standalone="no"?>
<!DOCTYPE svg PUBLIC "-//W3C//DTD SVG 20010904//EN"
 "http://www.w3.org/TR/2001/REC-SVG-20010904/DTD/svg10.dtd">
<svg version="1.0" xmlns="http://www.w3.org/2000/svg"
 width="259.000000pt" height="194.000000pt" viewBox="0 0 259.000000 194.000000"
 preserveAspectRatio="xMidYMid meet">

<g transform="translate(0.000000,194.000000) scale(0.100000,-0.100000)"
fill="#000000" stroke="none">
<path d="M863 1627 c-80 -28 -143 -74 -187 -134 -66 -91 -76 -185 -32 -321 48
-152 35 -215 -71 -340 -74 -87 -105 -157 -111 -253 -5 -92 13 -158 64 -225
l34 -44 -80 0 c-47 0 -80 -4 -80 -10 0 -7 305 -10 895 -10 590 0 895 3 895 10
0 6 -27 10 -61 10 l-61 0 27 31 c14 18 40 59 58 93 29 55 32 70 32 151 0 107
-20 158 -91 226 -109 106 -118 171 -45 322 42 84 43 90 39 165 -5 93 -30 151
-99 226 -59 65 -133 106 -203 113 -79 8 -114 -2 -197 -56 -92 -60 -125 -71
-208 -71 -74 0 -143 27 -210 80 -77 62 -198 77 -308 37z m1093 -158 c12 -9 14
-103 14 -529 0 -285 -3 -525 -6 -534 -4 -10 -18 -16 -40 -16 -30 0 -34 -3 -34
-27 0 -55 10 -53 -361 -51 l-344 3 -3 118 -3 117 -52 -1 c-29 -1 -44 -3 -34
-6 21 -6 22 -50 2 -77 -17 -23 -20 -40 -5 -31 6 4 10 -18 10 -59 l0 -66 -205
0 -205 0 0 25 c0 17 5 25 18 25 10 0 28 7 40 16 17 12 20 19 12 29 -6 7 -19
11 -29 8 -12 -3 -33 12 -65 48 -105 117 -115 185 -47 326 24 48 49 96 58 105
14 16 72 38 135 52 14 3 28 14 30 24 5 20 -35 100 -59 117 -9 7 -14 19 -10 29
7 17 27 22 27 6 0 -5 -4 -10 -10 -10 -5 0 -10 -4 -10 -10 0 -23 20 -7 36 30
12 26 24 40 37 40 10 0 27 5 39 11 14 8 32 7 65 -3 37 -10 49 -20 60 -45 8
-20 20 -33 31 -33 14 0 15 2 2 10 -8 5 -11 12 -8 15 10 10 28 -4 28 -20 0 -8
-9 -19 -20 -25 -11 -6 -20 -17 -20 -25 0 -7 -12 -27 -26 -44 -21 -25 -23 -34
-14 -51 6 -11 20 -20 31 -20 42 0 109 -23 134 -46 l25 -23 0 253 c0 273 0 273
53 270 24 -1 27 2 27 30 0 18 5 37 12 44 16 16 665 17 684 1z"/>
<path d="M1419 1266 c-68 -18 -137 -72 -172 -135 -41 -73 -49 -176 -18 -246
11 -26 21 -48 21 -50 0 -1 -29 -22 -65 -46 -36 -24 -65 -47 -65 -50 0 -7 36
-19 56 -19 6 0 31 16 57 36 l45 35 51 -35 c152 -104 359 -47 433 121 22 49 25
138 9 200 -23 85 -101 160 -197 189 -56 17 -93 17 -155 0z m147 -51 c101 -30
166 -117 165 -223 0 -95 -37 -161 -115 -207 -156 -91 -355 22 -356 203 0 83
36 152 104 198 63 43 125 52 202 29z"/>
<path d="M1395 1081 c-3 -5 4 -16 14 -23 11 -8 30 -27 42 -42 l21 -27 -22 -24
c-12 -13 -19 -28 -16 -34 4 -6 1 -9 -7 -5 -18 7 -43 -21 -27 -31 7 -4 30 10
54 34 l42 41 43 -40 c58 -53 75 -40 20 16 l-43 44 43 44 c55 56 38 69 -20 15
l-42 -40 -42 41 c-43 42 -50 46 -60 31z"/>
<path d="M904 587 c-56 -37 -71 -67 -40 -84 29 -17 27 -18 90 31 43 33 53 45
41 50 -9 3 -14 10 -11 15 3 5 -3 11 -14 14 -12 3 -38 -7 -66 -26z"/>
<path d="M1091 504 c0 -11 3 -14 6 -6 3 7 2 16 -1 19 -3 4 -6 -2 -5 -13z"/>
</g>
</svg>
