<?xml version="1.0" standalone="no"?>
<!DOCTYPE svg PUBLIC "-//W3C//DTD SVG 20010904//EN"
 "http://www.w3.org/TR/2001/REC-SVG-20010904/DTD/svg10.dtd">
<svg version="1.0" xmlns="http://www.w3.org/2000/svg"
 width="626.000000pt" height="626.000000pt" viewBox="0 0 626.000000 626.000000"
 preserveAspectRatio="xMidYMid meet">

<g transform="translate(0.000000,626.000000) scale(0.100000,-0.100000)"
fill="#000000" stroke="none">
<path d="M2353 3843 c9 -2 25 -2 35 0 9 3 1 5 -18 5 -19 0 -27 -2 -17 -5z"/>
<path d="M3375 3841 c-69 -18 -189 -102 -169 -119 5 -4 12 -11 17 -17 5 -5 5
0 2 12 -4 16 -2 22 7 20 7 -2 10 -2 5 0 -13 8 3 22 18 16 11 -3 13 -1 9 10 -6
18 22 36 51 34 12 -1 19 3 17 11 -1 9 6 11 25 7 24 -5 25 -4 8 5 -16 8 -12 9
19 6 22 -3 45 -1 50 3 7 6 27 3 51 -5 22 -8 50 -16 62 -18 13 -2 30 -9 40 -17
11 -9 14 -10 9 -1 -10 17 -65 44 -75 37 -5 -3 -11 -1 -13 4 -4 13 -97 22 -133
12z"/>
<path d="M2273 3832 c-8 -5 1 -8 22 -9 19 -1 35 3 35 8 0 11 -40 12 -57 1z"/>
<path d="M2407 3833 c-3 -5 11 -9 32 -10 27 -1 31 1 16 7 -26 11 -43 12 -48 3z"/>
<path d="M2220 3802 c-50 -34 -72 -58 -96 -104 -35 -69 -30 -103 9 -58 14 17
14 20 2 20 -17 0 -19 9 -5 30 6 10 10 11 10 3 0 -7 5 -13 12 -13 9 0 9 3 0 12
-7 7 -12 16 -12 20 0 16 72 78 83 71 7 -3 9 -3 5 2 -4 4 0 14 10 21 25 20 11
17 -18 -4z m-103 -164 c-3 -8 -6 -5 -6 6 -1 11 2 17 5 13 3 -3 4 -12 1 -19z"/>
<path d="M2495 3805 c11 -8 26 -19 33 -25 6 -6 12 -7 12 -2 0 10 -44 42 -57
42 -4 0 1 -7 12 -15z"/>
<path d="M3606 3771 c-3 -5 3 -11 15 -14 16 -4 18 -3 8 9 -13 16 -16 17 -23 5z"/>
<path d="M3618 3731 c8 -4 13 -11 13 -15 -2 -16 0 -18 13 -7 10 8 16 9 19 1 3
-6 4 -5 3 2 -2 7 -8 13 -13 13 -6 0 -15 3 -19 8 -4 4 -12 7 -18 7 -6 0 -5 -4
2 -9z"/>
<path d="M3261 3717 c-8 -10 -7 -14 2 -14 8 0 14 6 14 14 0 7 -1 13 -2 13 -2
0 -8 -6 -14 -13z"/>
<path d="M3144 3673 c-16 -21 -36 -43 -44 -51 -54 -49 -118 -110 -133 -128
-16 -19 -16 -22 -3 -27 9 -4 15 -3 15 1 -3 20 2 33 11 27 6 -3 10 1 10 10 0
10 5 13 12 9 7 -5 8 -3 3 6 -6 10 -4 12 8 7 10 -4 16 -2 14 6 -1 7 4 11 11 10
6 -2 11 0 11 5 -3 20 2 32 13 26 6 -4 8 -3 5 3 -7 11 41 49 56 45 4 -1 6 1 6
6 -3 19 2 33 11 27 6 -3 10 1 10 10 0 10 5 13 12 9 7 -5 8 -3 3 6 -6 9 -4 12
7 8 9 -4 15 0 15 8 0 25 -23 15 -53 -23z"/>
<path d="M3687 3595 c2 -49 6 -91 8 -94 8 -8 4 143 -4 164 -5 11 -7 -20 -4
-70z"/>
<path d="M2091 3588 c-1 -34 18 -126 28 -133 5 -2 4 15 -1 38 -5 23 -13 60
-17 82 -7 31 -9 34 -10 13z"/>
<path d="M2730 3585 c7 -8 9 -15 4 -15 -14 0 15 -24 32 -26 12 -2 8 6 -12 27
-29 30 -46 40 -24 14z"/>
<path d="M2811 3478 c5 -10 12 -18 15 -18 3 0 2 5 -1 10 -9 14 8 12 25 -2 8
-7 7 -4 -3 8 -22 27 -50 29 -36 2z"/>
<path d="M2913 3444 c-3 -9 -12 -13 -22 -10 -13 5 -12 3 2 -8 14 -10 15 -15 5
-19 -7 -3 -3 -5 9 -3 12 1 26 6 30 11 5 4 3 5 -4 1 -6 -3 -14 -2 -18 4 -3 5
-1 10 5 10 6 0 8 5 5 10 -3 6 -2 10 4 10 5 0 11 -5 13 -12 3 -8 6 -7 10 3 4
10 -1 15 -14 16 -10 1 -22 -5 -25 -13z"/>
<path d="M3643 3448 c10 -5 15 -13 12 -18 -8 -12 -40 -4 -37 10 1 6 -2 9 -8 5
-8 -5 -8 -11 1 -21 6 -7 15 -11 20 -8 15 9 10 -13 -5 -25 -11 -9 -15 -9 -20 1
-3 7 -4 4 -3 -7 1 -12 -3 -19 -11 -17 -8 1 -11 -1 -8 -6 3 -5 -6 -20 -20 -33
-21 -20 -27 -21 -35 -9 -8 12 -9 10 -5 -6 4 -14 -1 -27 -15 -40 -12 -10 -23
-18 -25 -16 -2 1 -3 0 -1 -1 5 -8 -26 -36 -34 -31 -5 3 -8 0 -7 -8 2 -7 -3
-12 -10 -10 -8 1 -11 -2 -8 -7 11 -16 -14 -23 -32 -9 -15 12 -16 11 -4 -4 18
-23 6 -43 -16 -26 -13 11 -15 11 -10 -3 9 -23 -18 -59 -41 -54 -13 2 -18 -2
-17 -18 1 -13 -4 -21 -12 -19 -14 3 -14 -66 0 -74 5 -3 5 -11 2 -17 -5 -8 -3
-8 7 1 18 17 29 15 30 -5 0 -12 2 -14 6 -5 3 8 -7 27 -23 43 l-28 29 186 188
c102 103 190 196 196 207 9 17 7 20 -16 22 -22 1 -23 0 -9 -9z"/>
<path d="M2136 3441 c-3 -4 0 -16 8 -26 11 -15 13 -16 13 -1 0 9 -4 16 -9 16
-5 0 -6 5 -3 10 3 6 4 10 1 10 -3 0 -7 -4 -10 -9z"/>
<path d="M3550 3365 c-11 -13 -15 -13 -22 -3 -8 10 -9 10 -6 -1 6 -22 36 -21
41 0 6 23 3 24 -13 4z"/>
<path d="M2194 3358 c-4 -7 -4 -10 1 -6 4 4 15 2 24 -5 14 -11 14 -10 2 6 -16
20 -18 21 -27 5z"/>
<path d="M3445 3273 c0 -12 3 -25 7 -28 3 -3 5 5 4 17 0 14 4 22 12 21 6 -2
12 1 12 6 0 6 -8 9 -18 8 -13 -1 -18 -8 -17 -24z"/>
<path d="M2274 3278 c-4 -7 -4 -10 1 -6 4 4 15 2 24 -5 14 -11 14 -10 2 6 -16
20 -18 21 -27 5z"/>
<path d="M3360 3205 c0 -8 2 -15 4 -15 2 0 6 7 10 15 3 8 1 15 -4 15 -6 0 -10
-7 -10 -15z"/>
<path d="M2354 3198 c-4 -7 -4 -10 1 -6 4 4 15 2 24 -5 14 -11 14 -10 2 6 -16
20 -18 21 -27 5z"/>
<path d="M2460 3130 c0 -6 -4 -9 -9 -5 -5 3 -13 0 -17 -7 -4 -7 -4 -10 1 -6 4
4 15 2 23 -5 11 -8 14 -8 9 0 -4 6 -2 13 5 15 9 3 9 6 0 12 -7 4 -12 2 -12 -4z"/>
<path d="M2504 3040 c0 -9 6 -17 13 -17 7 0 9 5 6 10 -4 6 1 8 11 4 9 -4 15
-3 12 2 -11 18 -42 18 -42 1z"/>
<path d="M2450 2969 c0 -5 5 -7 10 -4 6 3 10 8 10 11 0 2 -4 4 -10 4 -5 0 -10
-5 -10 -11z"/>
<path d="M2437 2940 c9 -11 19 -17 21 -15 6 6 -18 35 -29 35 -5 0 -1 -9 8 -20z"/>
<path d="M2395 2920 c-11 -4 -42 -34 -70 -66 -27 -31 -59 -64 -70 -73 -51 -42
-116 -118 -137 -160 -27 -57 -31 -169 -6 -215 15 -29 16 -29 27 -8 10 18 9 21
-4 16 -14 -6 -21 17 -16 49 0 4 -3 7 -9 7 -5 0 -10 15 -10 33 0 25 3 29 11 17
7 -11 8 -6 4 20 -4 19 -1 49 5 65 10 26 13 28 21 12 6 -9 8 -21 4 -26 -3 -5
-2 -12 3 -15 5 -3 8 10 8 29 0 18 -4 31 -8 29 -11 -7 -10 8 1 25 5 7 13 11 18
8 5 -3 15 -1 23 5 12 8 12 9 -2 4 -28 -9 -21 0 17 24 19 12 34 27 32 33 -1 7
4 11 11 9 8 -1 11 2 8 7 -4 5 10 19 30 31 23 15 33 28 29 37 -3 10 -1 13 8 10
8 -3 20 -1 28 5 11 8 9 9 -6 4 -18 -5 -17 -4 3 10 12 9 22 23 22 30 0 8 5 14
11 14 5 0 7 -6 3 -12 -4 -8 -3 -10 2 -5 5 5 9 14 9 20 1 7 7 11 14 9 7 -1 10
2 7 7 -4 5 0 12 6 14 7 3 9 5 3 6 -5 0 -19 -4 -30 -9z m-85 -110 c0 -5 -5 -10
-11 -10 -5 0 -7 5 -4 10 3 6 8 10 11 10 2 0 4 -4 4 -10z"/>
<path d="M3390 2926 c0 -2 8 -10 18 -17 15 -13 16 -12 3 4 -13 16 -21 21 -21
13z"/>
<path d="M3362 2911 c-11 -7 -11 -9 0 -14 9 -3 15 1 15 9 0 8 -1 14 -1 14 -1
0 -7 -4 -14 -9z"/>
<path d="M3470 2846 c0 -2 8 -10 18 -17 15 -13 16 -12 3 4 -13 16 -21 21 -21
13z"/>
<path d="M2296 2757 c3 -10 9 -15 12 -12 3 3 0 11 -7 18 -10 9 -11 8 -5 -6z"/>
<path d="M3577 2719 c7 -7 15 -10 18 -7 3 3 -2 9 -12 12 -14 6 -15 5 -6 -5z"/>
<path d="M3605 2691 c-3 -5 -2 -12 3 -15 5 -3 9 1 9 9 0 17 -3 19 -12 6z"/>
<path d="M3630 2686 c0 -2 8 -10 18 -17 15 -13 16 -12 3 4 -13 16 -21 21 -21
13z"/>
<path d="M2805 2633 c0 -12 3 -25 7 -28 3 -3 5 5 4 17 0 14 4 22 12 21 6 -2
12 1 12 6 0 6 -8 9 -18 8 -13 -1 -18 -8 -17 -24z"/>
<path d="M2875 2640 c-9 -10 -21 -18 -25 -17 -4 1 -9 -2 -10 -8 -3 -19 -22
-35 -33 -28 -6 4 -7 1 -2 -7 5 -9 2 -10 -12 -6 -14 5 -19 1 -20 -15 -3 -34
-23 -52 -41 -37 -13 11 -15 10 -10 -4 8 -19 -14 -53 -34 -53 -7 0 -13 -4 -13
-10 0 -18 -16 -36 -26 -29 -5 3 -8 0 -7 -8 2 -7 -3 -12 -10 -10 -8 1 -11 -2
-8 -7 11 -16 -14 -23 -32 -9 -15 12 -16 11 -4 -4 14 -17 8 -43 -8 -33 -4 3
-11 -2 -14 -11 -3 -8 -11 -12 -17 -8 -8 4 -9 3 -5 -5 8 -12 -11 -44 -23 -37
-3 2 -15 -6 -26 -16 -20 -20 -20 -20 10 -5 28 14 407 387 394 387 -3 0 -14 -9
-24 -20z"/>
<path d="M2921 2651 c-10 -7 -7 -9 12 -8 14 1 23 5 20 10 -6 9 -15 9 -32 -2z"/>
<path d="M3631 2644 c0 -11 3 -14 6 -6 3 7 2 16 -1 19 -3 4 -6 -2 -5 -13z"/>
<path d="M3650 2642 c0 -12 19 -26 26 -19 2 2 -2 10 -11 17 -9 8 -15 8 -15 2z"/>
<path d="M2938 2609 c9 -10 17 -19 17 -19 0 0 1 8 1 18 0 10 -8 19 -17 19 -16
2 -17 0 -1 -18z"/>
<path d="M3687 2535 c6 -104 11 -119 12 -30 0 39 -4 79 -8 90 -5 11 -6 -16 -4
-60z"/>
<path d="M2127 2561 c3 -12 9 -21 14 -21 14 0 11 16 -5 29 -12 10 -13 8 -9 -8z"/>
<path d="M2980 2577 c0 -3 12 -12 26 -22 15 -9 23 -12 20 -6 -7 11 -46 35 -46
28z"/>
<path d="M2135 2500 c-3 -5 -1 -10 4 -10 6 0 11 5 11 10 0 6 -2 10 -4 10 -3 0
-8 -4 -11 -10z"/>
<path d="M2645 2473 c0 -12 3 -25 7 -28 3 -3 5 5 4 17 0 14 4 22 12 21 6 -2
12 1 12 6 0 6 -8 9 -18 8 -13 -1 -18 -8 -17 -24z"/>
<path d="M3051 2497 c2 -2 18 -11 34 -21 l30 -17 -24 20 c-13 12 -28 21 -34
21 -6 0 -8 -1 -6 -3z"/>
<path d="M2130 2445 c0 -8 4 -15 10 -15 5 0 7 7 4 15 -4 8 -8 15 -10 15 -2 0
-4 -7 -4 -15z"/>
<path d="M2560 2409 c0 -5 5 -7 10 -4 6 3 10 8 10 11 0 2 -4 4 -10 4 -5 0 -10
-5 -10 -11z"/>
<path d="M3140 2417 c0 -3 12 -12 26 -22 15 -9 23 -12 20 -6 -7 11 -46 35 -46
28z"/>
<path d="M3650 2400 c0 -6 5 -8 10 -5 16 10 12 -1 -14 -39 -13 -19 -26 -32
-30 -29 -3 4 -6 1 -6 -5 0 -6 -7 -9 -15 -6 -10 4 -15 0 -15 -11 0 -9 -4 -13
-10 -10 -5 3 -18 1 -27 -4 -11 -6 -13 -11 -5 -11 7 0 10 -4 7 -10 -3 -5 -3
-10 2 -10 14 1 43 27 43 38 0 6 6 9 14 6 14 -6 79 73 73 90 -5 14 -27 20 -27
6z"/>
<path d="M2142 2379 c-12 -18 -8 -25 31 -65 42 -41 67 -55 67 -36 0 5 -10 17
-22 28 -19 15 -20 16 -9 2 8 -11 9 -18 3 -18 -12 0 -27 19 -27 35 0 6 -7 10
-15 10 -8 1 -14 6 -12 13 1 7 -3 12 -9 12 -8 0 -7 5 1 15 7 9 11 17 9 20 -3 2
-10 -5 -17 -16z"/>
<path d="M3604 2379 c1 -33 21 -34 23 -1 1 16 -2 20 -7 12 -6 -10 -9 -9 -13 1
-2 8 -4 2 -3 -12z"/>
<path d="M2486 2328 c3 -5 10 -6 15 -3 13 9 11 12 -6 12 -8 0 -12 -4 -9 -9z"/>
<path d="M3285 2330 c-3 -6 1 -7 9 -4 18 7 21 14 7 14 -6 0 -13 -4 -16 -10z"/>
<path d="M3525 2330 c-3 -5 -1 -10 4 -10 6 0 11 5 11 10 0 6 -2 10 -4 10 -3 0
-8 -4 -11 -10z"/>
<path d="M3316 2321 c-3 -5 1 -11 9 -14 9 -4 12 -1 8 9 -6 16 -10 17 -17 5z"/>
<path d="M3261 2304 c-1 -7 10 -19 24 -28 31 -20 41 -21 25 -1 -7 8 -18 15
-25 15 -8 0 -16 6 -18 13 -4 7 -6 8 -6 1z"/>
<path d="M3340 2280 c-9 -6 -10 -10 -3 -10 6 0 15 5 18 10 8 12 4 12 -15 0z"/>
<path d="M2305 2249 c-15 -6 -11 -8 18 -8 20 -1 37 1 37 3 0 9 -37 12 -55 5z"/>
<path d="M3340 2250 c8 -5 26 -10 39 -10 32 0 24 6 -19 14 -25 4 -31 3 -20 -4z"/>
<path d="M3460 2250 c0 -13 40 -13 60 0 11 7 5 10 -22 10 -21 0 -38 -4 -38
-10z"/>
<path d="M2388 2243 c12 -2 30 -2 40 0 9 3 -1 5 -23 4 -22 0 -30 -2 -17 -4z"/>
<path d="M3420 2246 c0 -2 7 -7 16 -10 8 -3 12 -2 9 4 -6 10 -25 14 -25 6z"/>
<path d="M4528 1653 c6 -2 18 -2 25 0 6 3 1 5 -13 5 -14 0 -19 -2 -12 -5z"/>
<path d="M4455 1630 c-3 -6 1 -7 9 -4 18 7 21 14 7 14 -6 0 -13 -4 -16 -10z"/>
<path d="M4731 1637 c2 -2 18 -11 34 -21 l30 -17 -24 20 c-13 12 -28 21 -34
21 -6 0 -8 -1 -6 -3z"/>
<path d="M4296 1465 c-3 -9 -6 -22 -5 -28 0 -7 5 -1 10 12 5 13 8 26 5 28 -2
2 -6 -3 -10 -12z"/>
<path d="M4273 1335 c0 -27 2 -38 4 -22 2 15 2 37 0 50 -2 12 -4 0 -4 -28z"/>
<path d="M5130 1277 c0 -2 15 -16 33 -33 l32 -29 -29 33 c-28 30 -36 37 -36
29z"/>
<path d="M4281 1254 c0 -11 3 -14 6 -6 3 7 2 16 -1 19 -3 4 -6 -2 -5 -13z"/>
<path d="M4316 1182 c-3 -5 0 -17 7 -26 12 -16 13 -16 14 3 2 22 -12 37 -21
23z"/>
<path d="M4340 1127 c0 -2 15 -16 33 -33 l32 -29 -29 33 c-28 30 -36 37 -36
29z"/>
<path d="M4519 947 c33 -35 56 -52 32 -23 -8 10 -9 16 -1 19 6 3 5 4 -2 3 -7
-2 -24 6 -38 18 -14 11 -9 4 9 -17z"/>
<path d="M5450 957 c0 -2 15 -16 33 -33 l32 -29 -29 33 c-28 30 -36 37 -36 29z"/>
<path d="M4601 879 c-1 -9 9 -24 22 -35 22 -19 22 -19 6 1 -9 11 -19 27 -22
35 -5 13 -6 13 -6 -1z"/>
<path d="M5526 867 c3 -10 9 -15 12 -12 3 3 0 11 -7 18 -10 9 -11 8 -5 -6z"/>
<path d="M5543 805 c0 -22 2 -30 4 -17 2 12 2 30 0 40 -3 9 -5 -1 -4 -23z"/>
<path d="M4760 705 c19 -19 36 -35 39 -35 3 0 -10 16 -29 35 -19 19 -36 35
-39 35 -3 0 10 -16 29 -35z"/>
<path d="M5509 713 c-13 -16 -12 -17 4 -4 9 7 17 15 17 17 0 8 -8 3 -21 -13z"/>
<path d="M5067 409 c7 -7 15 -10 18 -7 3 3 -2 9 -12 12 -14 6 -15 5 -6 -5z"/>
<path d="M5123 393 c9 -2 25 -2 35 0 9 3 1 5 -18 5 -19 0 -27 -2 -17 -5z"/>
</g>
</svg>
