<svg width="195" height="222" viewBox="0 0 195 222" fill="none" xmlns="http://www.w3.org/2000/svg">
<g clip-path="url(#clip0_5_50)">
<path fill-rule="evenodd" clip-rule="evenodd" d="M60.5529 27.4872C57.4971 23.9039 55.4289 19.5125 55.7745 14.5919C56.7703 0.414046 76.5259 3.53298 80.3687 10.6887C84.2116 17.8445 83.755 35.9956 78.7884 37.2745C76.8077 37.7846 72.5883 36.5352 68.294 33.9493L70.9895 53H55.0737L60.5529 27.4872Z" fill="#915B3C"/>
<path fill-rule="evenodd" clip-rule="evenodd" d="M59.3299 30.6787C57.3323 21.8005 51.6415 15.7486 52.5107 11.7804C53.0901 9.13493 54.6344 7.48981 57.1436 6.84504C58.4413 1.60027 62.6268 -0.630535 69.7 0.152624C80.3099 1.32736 86.7855 5.72914 83.989 15.415C81.4184 15.415 78.315 14.4862 74.0238 16.0775C72.6622 16.5824 71.6883 18.1481 71.1022 20.7747H69.163C67.2809 17.6576 65.4252 16.5122 63.5958 17.3384C61.7664 18.1646 61.3505 20.1714 62.3482 23.3588L61.393 30.6787H59.3299Z" fill="#191847"/>
<path fill-rule="evenodd" clip-rule="evenodd" d="M10.6421 135.812H86.9053C92.7653 135.812 97.5158 140.558 97.5158 146.412V207.362C97.5158 213.217 92.7653 217.962 86.9053 217.962H10.6421C4.78206 217.962 0.0315704 213.217 0.0315704 207.362V146.412C0.0315704 140.558 4.78206 135.812 10.6421 135.812ZM21.2526 154.362C19.7876 154.362 18.6 155.549 18.6 157.012V196.762C18.6 198.226 19.7876 199.412 21.2526 199.412H76.2947C77.7597 199.412 78.9474 198.226 78.9474 196.762V157.012C78.9474 155.549 77.7597 154.362 76.2947 154.362H21.2526Z" fill="#C5CFD6"/>
<path fill-rule="evenodd" clip-rule="evenodd" d="M163.274 214.65C150.199 198.7 141.352 186.875 136.734 179.176C128.826 165.992 122.353 154.262 120.311 149.781C115.44 139.095 131.524 134.092 135.164 139.076C140.673 146.619 152.44 170.357 170.463 210.289L163.274 214.65Z" fill="#B28B67"/>
<path fill-rule="evenodd" clip-rule="evenodd" d="M136.481 210.012L112.149 148.822C106.944 137.667 132.077 130.335 135.902 135.526C144.585 147.312 165.223 193.804 167.811 197.315L136.481 210.012Z" fill="#2F3676"/>
<path fill-rule="evenodd" clip-rule="evenodd" d="M71.6745 197.743C76.4148 190.836 93.6567 167.597 103.048 157.981C105.746 155.218 108.379 152.566 110.87 150.094C118.272 142.748 133.01 155.093 125.622 161.784C107.221 178.447 80.3729 200.942 78.1297 202.947C74.9859 205.759 68.6954 202.084 71.6745 197.743Z" fill="#915B3C"/>
<path fill-rule="evenodd" clip-rule="evenodd" d="M72.785 194.622C71.1518 195.965 70.0894 197.062 69.5975 197.913C68.9993 198.948 68.299 200.558 67.4964 202.743C68.6977 203.435 79.4942 209.662 99.8859 221.422C102.335 219.127 102.717 217.345 101.031 216.078C99.3462 214.81 97.9555 213.741 96.8593 212.871L85.6817 197.481C85.4666 197.185 85.0519 197.119 84.7554 197.334C84.7504 197.338 84.7454 197.342 84.7404 197.346L82.4168 199.133C80.2856 198.948 78.6952 198.553 77.6456 197.947C76.7929 197.456 75.8141 196.432 74.7095 194.877L74.7095 194.877C74.2855 194.281 73.4576 194.14 72.8602 194.564C72.8344 194.583 72.8093 194.602 72.785 194.622Z" fill="#E4E4E4"/>
<path fill-rule="evenodd" clip-rule="evenodd" d="M157.65 212.266C156.908 214.245 156.537 215.725 156.537 216.707C156.537 217.902 156.736 219.645 157.135 221.937C158.522 221.937 170.99 221.937 194.538 221.937C195.51 218.727 194.949 216.994 192.855 216.738C190.76 216.482 189.021 216.251 187.636 216.045L170.251 208.302C169.916 208.154 169.524 208.304 169.375 208.638C169.373 208.644 169.37 208.649 169.368 208.655L168.25 211.363C166.312 212.267 164.736 212.719 163.524 212.719C162.54 212.719 161.18 212.321 159.444 211.527L159.444 211.527C158.779 211.222 157.991 211.514 157.686 212.179C157.673 212.208 157.661 212.237 157.65 212.266Z" fill="#E4E4E4"/>
<path fill-rule="evenodd" clip-rule="evenodd" d="M103.393 151.878C83.1686 148.587 69.6221 146.336 62.7534 145.126C43.1749 141.677 37.4657 131.152 40.8413 108.188H76.9143C81.688 109.565 101.634 118.082 136.753 133.74C143.072 136.874 141.895 146.113 140.74 149.157C140.693 149.281 130.041 167.515 108.784 203.86L79.2751 185.08L103.448 154.091C104.087 152.807 104.068 152.069 103.393 151.878Z" fill="#5C63AB"/>
<path fill-rule="evenodd" clip-rule="evenodd" d="M105.992 99.5151L127.145 115.033C132.883 116.58 137.676 118.504 141.525 120.806C142.435 121.634 143.534 123.31 139.763 123.02C135.992 122.731 132.012 122.595 131.492 123.88C130.971 125.165 133.253 126.702 132.201 128.436C131.5 129.591 128.188 126.693 122.263 119.741L101.316 111.063L105.992 99.5151ZM24.7727 100.051L38.6309 100.105C30.0741 127.701 25.4547 142.343 24.7727 144.031C23.2381 147.83 26.4854 153.616 27.874 156.726C23.3512 158.748 23.8332 151.26 18.1278 153.912C12.9202 156.332 8.95883 160.718 2.94223 157.009C2.20252 156.553 1.39192 154.836 3.35043 153.494C8.22978 150.152 15.2612 144.302 16.2113 142.377C17.5069 139.751 20.3606 125.642 24.7727 100.051Z" fill="#915B3C"/>
<path fill-rule="evenodd" clip-rule="evenodd" d="M64.1556 41.9575L69.89 40.9749C91.1664 59.3363 99.9053 94.6109 125.985 113.297L119.708 121.07C74.4645 115.474 63.2506 72.4476 64.1556 41.9575Z" fill="#E87613"/>
<path fill-rule="evenodd" clip-rule="evenodd" d="M39.1579 113.95C62.1507 113.95 79.0638 113.95 89.8971 113.95C92.2156 113.95 91.7787 110.605 91.4436 108.918C87.5754 89.44 72.4758 68.4439 72.4758 40.7177L57.8403 38.425C45.7348 57.8749 41.5485 81.8218 39.1579 113.95Z" fill="#DDE3E9"/>
<path fill-rule="evenodd" clip-rule="evenodd" d="M39.5656 57.5434C37.44 56.933 35.7567 55.5093 34.5158 53.2724C29.1665 43.6297 31.0984 38.3206 36.8151 36.5755C42.5318 34.8304 47.63 38.425 56.7382 38.425C57.2337 38.425 57.6874 38.456 58.0995 38.5181L62.6812 38.7793C75.8265 83.2863 79.452 112.981 73.5574 127.863H33.6217C31.2556 133.374 28.9914 138.012 26.8291 141.775H15.9474C14.9233 108.694 22.796 80.6173 39.5656 57.5434Z" fill="#FF9B21"/>
<path fill-rule="evenodd" clip-rule="evenodd" d="M42.318 105.005C43.574 115.503 45.6154 123.122 48.4421 127.862H33.6217C36.3818 121.433 39.2805 113.814 42.318 105.005Z" fill="black" fill-opacity="0.1"/>
</g>
<defs>
<clipPath id="clip0_5_50">
<rect width="195" height="222" fill="white" transform="matrix(-1 0 0 1 195 0)"/>
</clipPath>
</defs>
</svg>
